HIERARCHY
ROOT Root
{
  OFFSET 0.0 0.0 0.0
  CHANNELS 6 Xposition Yposition Zposition Zrotation Yrotation Xrotation
  JOINT Hips
  {
    OFFSET 0.0 100.0 0.0
    CHANNELS 6 Xposition Yposition Zposition Zrotation Yrotation Xrotation
    JOINT Spine1
    {
      OFFSET 5.003913 -0.037094 -0.013727
      CHANNELS 3 Zrotation Yrotation Xrotation
      JOINT Spine2
      {
        OFFSET 7.125363 -1e-06 0.0
        CHANNELS 3 Zrotation Yrotation Xrotation
        JOINT Chest
        {
          OFFSET 7.594027 1e-06 0.0
          CHANNELS 3 Zrotation Yrotation Xrotation
          JOINT Neck1
          {
            OFFSET 26.313086 -0.460272 -0.181672
            CHANNELS 3 Zrotation Yrotation Xrotation
            JOINT Neck2
            {
              OFFSET 8.045911 0.0 0.0
              CHANNELS 3 Zrotation Yrotation Xrotation
              JOINT Head
              {
                OFFSET 6.432774 0.0 0.0
                CHANNELS 3 Zrotation Yrotation Xrotation
                JOINT HeadEnd
                {
                  OFFSET 16.169773 0.06451 0.00362
                  CHANNELS 3 Zrotation Yrotation Xrotation
                }
                JOINT Jaw
                {
                  OFFSET 0.108741 3.12938 0.002639
                  CHANNELS 3 Zrotation Yrotation Xrotation
                }
                JOINT LeftEye
                {
                  OFFSET 4.45173 8.166359 3.206392
                  CHANNELS 3 Zrotation Yrotation Xrotation
                }
                JOINT RightEye
                {
                  OFFSET 4.436895 8.135758 -3.222429
                  CHANNELS 3 Zrotation Yrotation Xrotation
                }
              }
            }
          }
          JOINT LeftShoulder
          {
            OFFSET 23.218927 5.195579 1.621656
            CHANNELS 3 Zrotation Yrotation Xrotation
            JOINT LeftArm
            {
              OFFSET 15.902118 2e-06 -2e-06
              CHANNELS 3 Zrotation Yrotation Xrotation
              JOINT LeftForeArm
              {
                OFFSET 28.739307 0.0 -1e-06
                CHANNELS 3 Zrotation Yrotation Xrotation
                JOINT LeftHand
                {
                  OFFSET 27.093981 -4e-06 0.0
                  CHANNELS 3 Zrotation Yrotation Xrotation
                  JOINT LeftHandThumb1
                  {
                    OFFSET 2.276781 3.380274 0.83384
                    CHANNELS 3 Zrotation Yrotation Xrotation
                    JOINT LeftHandThumb2
                    {
                      OFFSET 4.705309 -1e-06 -1e-06
                      CHANNELS 3 Zrotation Yrotation Xrotation
                      JOINT LeftHandThumb3
                      {
                        OFFSET 2.798515 0.0 3e-06
                        CHANNELS 3 Zrotation Yrotation Xrotation
                        JOINT LeftHandThumbEnd
                        {
                          OFFSET 3.180793 4e-06 -4e-06
                          CHANNELS 3 Zrotation Yrotation Xrotation
                        }
                      }
                    }
                  }
                  JOINT LeftHandIndex1
                  {
                    OFFSET 3.247786 2.352677 0.137192
                    CHANNELS 3 Zrotation Yrotation Xrotation
                    JOINT LeftHandIndex2
                    {
                      OFFSET 6.367095 1e-06 0.0
                      CHANNELS 3 Zrotation Yrotation Xrotation
                      JOINT LeftHandIndex3
                      {
                        OFFSET 3.662364 0.0 0.0
                        CHANNELS 3 Zrotation Yrotation Xrotation
                        JOINT LeftHandIndex4
                        {
                          OFFSET 2.329242 4e-06 -4e-06
                          CHANNELS 3 Zrotation Yrotation Xrotation
                          JOINT LeftHandIndexEnd
                          {
                            OFFSET 2.767823 1e-06 0.0
                            CHANNELS 3 Zrotation Yrotation Xrotation
                          }
                        }
                      }
                    }
                  }
                  JOINT LeftHandMiddle1
                  {
                    OFFSET 3.163612 0.945023 -0.406112
                    CHANNELS 3 Zrotation Yrotation Xrotation
                    JOINT LeftHandMiddle2
                    {
                      OFFSET 6.276789 3e-06 0.0
                      CHANNELS 3 Zrotation Yrotation Xrotation
                      JOINT LeftHandMiddle3
                      {
                        OFFSET 4.35652 -1e-06 4e-06
                        CHANNELS 3 Zrotation Yrotation Xrotation
                        JOINT LeftHandMiddle4
                        {
                          OFFSET 2.996877 0.0 8e-06
                          CHANNELS 3 Zrotation Yrotation Xrotation
                          JOINT LeftHandMiddleEnd
                          {
                            OFFSET 2.323256 3e-06 -4e-06
                            CHANNELS 3 Zrotation Yrotation Xrotation
                          }
                        }
                      }
                    }
                  }
                  JOINT LeftHandRing1
                  {
                    OFFSET 2.882606 -0.309162 0.107445
                    CHANNELS 3 Zrotation Yrotation Xrotation
                    JOINT LeftHandRing2
                    {
                      OFFSET 6.033198 0.0 4e-06
                      CHANNELS 3 Zrotation Yrotation Xrotation
                      JOINT LeftHandRing3
                      {
                        OFFSET 4.350578 3e-06 0.0
                        CHANNELS 3 Zrotation Yrotation Xrotation
                        JOINT LeftHandRing4
                        {
                          OFFSET 2.651321 2e-06 -7e-06
                          CHANNELS 3 Zrotation Yrotation Xrotation
                          JOINT LeftHandRingEnd
                          {
                            OFFSET 1.937663 1e-06 -4e-06
                            CHANNELS 3 Zrotation Yrotation Xrotation
                          }
                        }
                      }
                    }
                  }
                  JOINT LeftHandPinky1
                  {
                    OFFSET 2.865315 -1.525436 0.575687
                    CHANNELS 3 Zrotation Yrotation Xrotation
                    JOINT LeftHandPinky2
                    {
                      OFFSET 5.54936 1e-06 -8e-06
                      CHANNELS 3 Zrotation Yrotation Xrotation
                      JOINT LeftHandPinky3
                      {
                        OFFSET 3.070974 0.0 -4e-06
                        CHANNELS 3 Zrotation Yrotation Xrotation
                        JOINT LeftHandPinky4
                        {
                          OFFSET 1.549672 1e-06 0.0
                          CHANNELS 3 Zrotation Yrotation Xrotation
                          JOINT LeftHandPinkyEnd
                          {
                            OFFSET 1.952123 0.0 0.0
                            CHANNELS 3 Zrotation Yrotation Xrotation
                          }
                        }
                      }
                    }
                  }
                }
              }
            }
          }
          JOINT RightShoulder
          {
            OFFSET 23.161716 5.296122 -1.380114
            CHANNELS 3 Zrotation Yrotation Xrotation
            JOINT RightArm
            {
              OFFSET -16.027195 -2e-06 1.1e-05
              CHANNELS 3 Zrotation Yrotation Xrotation
              JOINT RightForeArm
              {
                OFFSET -28.736639 4e-06 2e-06
                CHANNELS 3 Zrotation Yrotation Xrotation
                JOINT RightHand
                {
                  OFFSET -27.133619 6e-06 0.0
                  CHANNELS 3 Zrotation Yrotation Xrotation
                  JOINT RightHandThumb1
                  {
                    OFFSET -2.274328 -3.351035 -0.83067
                    CHANNELS 3 Zrotation Yrotation Xrotation
                    JOINT RightHandThumb2
                    {
                      OFFSET -4.703594 -3e-06 2e-06
                      CHANNELS 3 Zrotation Yrotation Xrotation
                      JOINT RightHandThumb3
                      {
                        OFFSET -2.794935 -4e-06 -3e-06
                        CHANNELS 3 Zrotation Yrotation Xrotation
                        JOINT RightHandThumbEnd
                        {
                          OFFSET -3.183852 4e-06 1e-06
                          CHANNELS 3 Zrotation Yrotation Xrotation
                        }
                      }
                    }
                  }
                  JOINT RightHandIndex1
                  {
                    OFFSET -3.253496 -2.33755 -0.127667
                    CHANNELS 3 Zrotation Yrotation Xrotation
                    JOINT RightHandIndex2
                    {
                      OFFSET -6.344434 0.0 0.0
                      CHANNELS 3 Zrotation Yrotation Xrotation
                      JOINT RightHandIndex3
                      {
                        OFFSET -3.654871 0.0 -8e-06
                        CHANNELS 3 Zrotation Yrotation Xrotation
                        JOINT RightHandIndex4
                        {
                          OFFSET -2.327586 -1e-06 0.0
                          CHANNELS 3 Zrotation Yrotation Xrotation
                          JOINT RightHandIndexEnd
                          {
                            OFFSET -2.770001 3e-06 8e-06
                            CHANNELS 3 Zrotation Yrotation Xrotation
                          }
                        }
                      }
                    }
                  }
                  JOINT RightHandMiddle1
                  {
                    OFFSET -3.168223 -0.944764 0.411762
                    CHANNELS 3 Zrotation Yrotation Xrotation
                    JOINT RightHandMiddle2
                    {
                      OFFSET -6.266691 -1e-06 -4e-06
                      CHANNELS 3 Zrotation Yrotation Xrotation
                      JOINT RightHandMiddle3
                      {
                        OFFSET -4.348901 0.0 0.0
                        CHANNELS 3 Zrotation Yrotation Xrotation
                        JOINT RightHandMiddle4
                        {
                          OFFSET -3.00024 2e-06 -4e-06
                          CHANNELS 3 Zrotation Yrotation Xrotation
                          JOINT RightHandMiddleEnd
                          {
                            OFFSET -2.321477 -4e-06 -4e-06
                            CHANNELS 3 Zrotation Yrotation Xrotation
                          }
                        }
                      }
                    }
                  }
                  JOINT RightHandRing1
                  {
                    OFFSET -2.885654 0.293261 -0.119232
                    CHANNELS 3 Zrotation Yrotation Xrotation
                    JOINT RightHandRing2
                    {
                      OFFSET -6.032835 -1e-06 -4e-06
                      CHANNELS 3 Zrotation Yrotation Xrotation
                      JOINT RightHandRing3
                      {
                        OFFSET -4.33881 0.0 -4e-06
                        CHANNELS 3 Zrotation Yrotation Xrotation
                        JOINT RightHandRing4
                        {
                          OFFSET -2.654903 -4e-06 -4e-06
                          CHANNELS 3 Zrotation Yrotation Xrotation
                          JOINT RightHandRingEnd
                          {
                            OFFSET -1.935122 0.0 4e-06
                            CHANNELS 3 Zrotation Yrotation Xrotation
                          }
                        }
                      }
                    }
                  }
                  JOINT RightHandPinky1
                  {
                    OFFSET -2.866241 1.503904 -0.60527
                    CHANNELS 3 Zrotation Yrotation Xrotation
                    JOINT RightHandPinky2
                    {
                      OFFSET -5.553177 -2e-06 0.0
                      CHANNELS 3 Zrotation Yrotation Xrotation
                      JOINT RightHandPinky3
                      {
                        OFFSET -3.062664 -1e-06 -4e-06
                        CHANNELS 3 Zrotation Yrotation Xrotation
                        JOINT RightHandPinky4
                        {
                          OFFSET -1.546529 2e-06 4e-06
                          CHANNELS 3 Zrotation Yrotation Xrotation
                          JOINT RightHandPinkyEnd
                          {
                            OFFSET -1.952341 0.0 -4e-06
                            CHANNELS 3 Zrotation Yrotation Xrotation
                          }
                        }
                      }
                    }
                  }
                }
              }
            }
          }
        }
      }
    }
    JOINT LeftLeg
    {
      OFFSET -8.443107 2.567604 10.043214
      CHANNELS 3 Zrotation Yrotation Xrotation
      JOINT LeftShin
      {
        OFFSET 43.229198 1e-06 -1e-06
        CHANNELS 3 Zrotation Yrotation Xrotation
        JOINT LeftFoot
        {
          OFFSET 42.298611 1e-06 1e-06
          CHANNELS 3 Zrotation Yrotation Xrotation
          JOINT LeftToeBase
          {
            OFFSET 14.165858 1e-06 0.0
            CHANNELS 3 Zrotation Yrotation Xrotation
            JOINT LeftToeEnd
            {
              OFFSET 6.7141 -0.234461 0.0
              CHANNELS 3 Zrotation Yrotation Xrotation
            }
          }
        }
      }
    }
    JOINT RightLeg
    {
      OFFSET -8.303923 2.592729 -10.047278
      CHANNELS 3 Zrotation Yrotation Xrotation
      JOINT RightShin
      {
        OFFSET -43.369682 0.0 1e-06
        CHANNELS 3 Zrotation Yrotation Xrotation
        JOINT RightFoot
        {
          OFFSET -42.260784 4e-06 2e-06
          CHANNELS 3 Zrotation Yrotation Xrotation
          JOINT RightToeBase
          {
            OFFSET -14.222245 -2e-06 -1e-06
            CHANNELS 3 Zrotation Yrotation Xrotation
            JOINT RightToeEnd
            {
              OFFSET -6.660062 0.232574 -2e-06
              CHANNELS 3 Zrotation Yrotation Xrotation
            }
          }
        }
      }
    }
  }
}
MOTION
Frames: 4
Frame Time: 0.03333333333333333
0.0 0.0 0.0 0.0 -0.0 0.0 -13.007048 24.03965 163.050873 18.09045 -84.490211 155.020386 -1.399238 0.847009 0.946674 -9.890517 -0.004538 3.388111 14.639158 -3.854685 2.901612 -6.363777 -3.369073 3.865411 -2.049689 0.2059 -3.947273 -8.601912 9.994139 -4.991751 6e-06 0.0 0.0 -0.272279 -0.082339 0.037116 -0.462052 0.383799 -0.033734 -0.354171 -0.556965 0.112199 -65.835915 -67.727417 73.877777 86.790733 -2.340631 -46.728928 126.511688 -0.689258 -0.302859 -20.751841 17.71839 74.02626 17.636629 -26.322741 52.411213 -19.46666 -14.3956 29.410395 -1e-06 -8.774822 -2e-06 16.082514 -17.985983 6.873522 -0.609777 -1.795654 -3.889329 -4.807088 -11.046811 -2.937849 2e-06 -20.976019 2e-06 -5.01997 -25.033562 -4.031882 5e-06 1e-06 0.0 -10.634537 -5.68697 -3.565587 10.573276 -17.922958 -3.113901 0.0 -13.821213 3e-06 -0.50178 -31.181511 -4.027015 -11.043182 -60.14209 7.494826 -13.982715 -7.150199 -2.875042 13.772731 -8.401493 -3.218242 0.347733 -34.211559 0.771657 -0.963031 -17.733376 2.621022 1e-06 1e-06 -0.0 -17.346422 -20.095221 -4.201782 21.757561 -1.638375 3.866429 3e-06 -6.338824 2e-06 -1.697591 -22.591749 -6.194005 2e-06 -4e-06 -4e-06 -170.939056 -75.263802 -3.904838 27.711409 13.11665 -90.932709 83.483337 1.26371 1.483119 11.427529 25.712551 16.852329 22.182121 -20.375904 49.933327 -16.701817 -16.743536 28.476538 -3e-06 -12.690606 0.0 15.206648 -16.978161 2.255786 -0.105918 -1.513855 -4.275883 -5.039043 -5.612873 -2.953556 7e-06 -11.020527 -2e-06 -6.1113 -15.895334 -3.840471 1e-06 0.0 -1e-06 -10.283373 -5.680291 -4.341842 11.028296 -11.302407 -2.372632 -1.384269 -14.238585 -6.320123 -0.625436 -26.924202 -3.827603 -3.974753 -48.671284 -3.993016 -13.708527 -7.363477 -3.720941 18.141161 -14.052746 -3.242674 7e-06 -18.787275 -4e-06 -0.429712 -8.456047 2.555504 1e-06 -0.0 -1e-06 -15.923536 -20.094492 -5.473588 30.419222 -7.190829 1.735926 1e-06 -8.162929 1e-06 -1.861903 -22.861483 -6.167943 2e-06 -2e-06 -2e-06 170.175278 -35.846283 -82.281235 41.881954 -23.619217 32.812832 -75.69902 -2.838137 -10.194421 -9.681558 1.311639 2.905541 -0.999999 0.0 0.0 -29.444839 -16.389717 -62.52177 57.498814 -24.37612 29.162975 -119.207993 23.202038 -4.712309 -33.987587 0.865963 1.273346 -1.000003 0.0 0.0 
0.0 0.0 0.0 0.0 -0.0 0.0 -15.074837 24.25037 165.005417 15.895906 -83.748123 160.997925 -1.200552 -0.370633 0.845832 -9.659145 -0.199749 2.832709 14.723147 -4.644281 2.006038 -6.669705 -1.927653 4.068253 -2.002314 0.122094 -4.923404 -8.438478 9.523872 -6.420878 6e-06 -0.0 0.0 -0.284081 -0.055154 0.035635 -0.476927 0.418866 -0.033822 -0.398996 -0.537683 0.109185 -63.063446 -68.917953 71.160248 87.177994 -0.97756 -44.673523 126.332382 -0.684875 -0.288068 -20.884346 17.169182 75.634979 17.636623 -26.322725 52.411182 -19.466658 -14.395596 29.410385 -2e-06 -8.774822 -3e-06 15.921167 -17.977797 6.967533 -0.609776 -1.795653 -3.889327 -4.807087 -11.04681 -2.93785 3e-06 -20.976011 1e-06 -5.01997 -25.033554 -4.031878 7e-06 2e-06 -0.0 -10.634533 -5.686969 -3.565588 10.573272 -17.922945 -3.113899 3e-06 -13.821205 2e-06 -0.501778 -31.181498 -4.027012 -10.97065 -60.031502 7.337241 -13.982711 -7.150197 -2.875042 13.772727 -8.40149 -3.218241 0.347736 -34.211544 0.771655 -0.963029 -17.73337 2.621021 -1e-06 -0.0 -1e-06 -17.346413 -20.095211 -4.201782 21.757555 -1.638375 3.866427 2e-06 -6.338821 2e-06 -1.697587 -22.591742 -6.194005 0.0 -5e-06 -2e-06 -176.353806 -76.533836 1.845157 26.933096 10.090516 -90.294006 87.54628 1.340503 1.395335 10.67315 23.918051 19.797718 22.182121 -20.375898 49.933327 -16.701817 -16.74353 28.476534 -3e-06 -12.690601 -1e-06 15.435751 -17.057045 2.178597 -0.105921 -1.513856 -4.275882 -5.03904 -5.612871 -2.953556 6e-06 -11.02052 -2e-06 -6.111297 -15.89533 -3.840472 0.0 -0.0 0.0 -10.283374 -5.680288 -4.34184 11.028296 -11.302404 -2.372633 -1.384268 -14.238579 -6.32012 -0.625436 -26.924187 -3.8276 -3.988124 -48.782883 -4.005502 -13.708527 -7.363475 -3.720942 18.141148 -14.052738 -3.242672 8e-06 -18.78727 -2e-06 -0.429711 -8.456042 2.555504 -0.0 -1e-06 0.0 -15.923538 -20.094482 -5.473587 30.41921 -7.190826 1.735926 4e-06 -8.162927 -0.0 -1.861906 -22.861469 -6.16794 1e-06 -3e-06 -1e-06 162.818832 -39.467632 -70.58197 61.251751 -23.720118 21.128798 -82.798187 -4.221501 -8.184955 -10.70761 1.41489 2.70278 -0.999999 2e-06 0.0 -25.623924 -15.09332 -80.768837 40.377808 -36.98653 48.711124 -118.349022 20.969599 -3.483383 -35.899647 0.926326 1.361789 -1.000005 -0.0 0.0 
0.0 0.0 0.0 0.0 -0.0 0.0 -17.052803 24.2841 166.876785 11.941053 -83.206589 168.786728 -1.104279 -1.486855 0.730981 -9.532382 -0.416271 2.230144 14.836119 -5.403385 1.031693 -6.882133 -0.648154 4.203389 -1.942526 -0.04785 -5.800505 -8.599898 9.207744 -7.864388 7e-06 -0.0 0.0 -0.300846 -0.054802 0.038235 -0.503537 0.427131 -0.036754 -0.432101 -0.548152 0.118449 -60.089451 -69.879601 68.277634 87.677986 0.407113 -42.876038 126.207748 -0.736387 -0.298926 -21.160137 16.593058 76.85112 17.636641 -26.322725 52.411182 -19.46666 -14.395596 29.410385 0.0 -8.774822 -3e-06 15.761697 -18.005699 7.104228 -0.609778 -1.795654 -3.889327 -4.80709 -11.04681 -2.93785 4e-06 -20.976017 1e-06 -5.019969 -25.03356 -4.031882 6e-06 2e-06 -0.0 -10.634537 -5.686973 -3.565588 10.573275 -17.922951 -3.113899 3e-06 -13.821208 2e-06 -0.501776 -31.181507 -4.02702 -11.070656 -59.993103 7.394674 -13.982713 -7.150198 -2.875043 13.772727 -8.401493 -3.218241 0.347735 -34.211555 0.771656 -0.963028 -17.733372 2.621021 -1e-06 1e-06 -1e-06 -17.346418 -20.095221 -4.201784 21.757563 -1.638374 3.866431 2e-06 -6.338824 2e-06 -1.697587 -22.591743 -6.194007 -1e-06 -6e-06 -3e-06 175.888489 -77.638664 10.166642 26.488684 7.409342 -89.680405 91.432777 1.231035 1.474082 9.415351 22.230862 22.62027 22.182121 -20.375896 49.933319 -16.701815 -16.743528 28.476532 -3e-06 -12.690601 -1e-06 15.698799 -17.188753 2.143465 -0.10592 -1.513855 -4.275882 -5.039042 -5.612873 -2.953556 6e-06 -11.020525 -1e-06 -6.111294 -15.895334 -3.840472 0.0 -0.0 0.0 -10.283373 -5.680287 -4.34184 11.028296 -11.302407 -2.372632 -1.384268 -14.238582 -6.320122 -0.625436 -26.924194 -3.827601 -4.013736 -48.903011 -4.113081 -13.708524 -7.363475 -3.720941 18.141148 -14.052739 -3.242672 1.1e-05 -18.78727 -2e-06 -0.429708 -8.456042 2.555503 2e-06 -1e-06 1e-06 -15.923536 -20.094482 -5.473587 30.419218 -7.19083 1.735928 6e-06 -8.162927 -2e-06 -1.861901 -22.861469 -6.167942 -3e-06 -4e-06 -2e-06 154.993271 -41.903191 -61.018036 78.562675 -22.253546 13.264826 -88.377731 -6.009375 -6.173388 -11.460256 1.49794 2.541681 -1.0 1e-06 -0.0 -20.872698 -14.911316 -108.515884 1.13562 -44.503284 93.151917 -116.901039 16.419168 -2.312211 -36.915188 0.987338 1.446932 -1.000004 -0.0 -1e-06 
0.0 0.0 0.0 0.0 -0.0 0.0 -18.960205 24.103695 168.600052 7.326765 -82.792824 177.420059 -1.087433 -2.533039 0.598291 -9.469322 -0.673479 1.555971 15.046198 -6.15573 -0.111334 -6.923296 0.563949 4.311473 -1.890882 -0.309986 -6.641015 -8.852702 8.941399 -9.292747 6e-06 -0.0 0.0 -0.315155 -0.069191 0.045162 -0.553709 0.428307 -0.037697 -0.467342 -0.582182 0.133837 -57.006351 -70.685089 65.371002 88.257812 1.90812 -41.173176 126.040459 -0.687904 -0.382811 -21.452805 16.020809 77.8685 17.636639 -26.322741 52.41119 -19.466656 -14.3956 29.410385 -0.0 -8.774823 -3e-06 15.64285 -18.038538 7.228342 -0.609778 -1.795653 -3.889327 -4.807091 -11.046812 -2.937849 2e-06 -20.976019 4e-06 -5.019975 -25.033564 -4.031877 6e-06 2e-06 -1e-06 -10.634537 -5.68697 -3.565587 10.573274 -17.922955 -3.113898 3e-06 -13.821206 3e-06 -0.501783 -31.181505 -4.027009 -11.348186 -60.041508 7.658548 -13.982716 -7.150197 -2.875041 13.772731 -8.401493 -3.21824 0.34773 -34.211559 0.771661 -0.96303 -17.733372 2.621021 -0.0 0.0 0.0 -17.346424 -20.095219 -4.201778 21.757561 -1.638374 3.866429 2e-06 -6.338822 3e-06 -1.697593 -22.591751 -6.194004 -1e-06 -4e-06 -1e-06 165.419281 -78.346306 21.33724 26.623167 5.051964 -89.45507 94.889748 0.922633 1.539359 7.854896 20.827963 25.332611 22.182121 -20.3759 49.933319 -16.701811 -16.743532 28.476526 -3e-06 -12.690603 -1e-06 15.955358 -17.335363 2.135332 -0.105923 -1.513856 -4.275881 -5.039042 -5.61287 -2.953555 5e-06 -11.02052 0.0 -6.111297 -15.895328 -3.840471 0.0 -1e-06 0.0 -10.28337 -5.680288 -4.341837 11.028296 -11.302403 -2.372631 -1.384266 -14.238577 -6.320119 -0.625439 -26.924185 -3.827597 -4.079626 -49.012753 -4.226778 -13.70852 -7.363474 -3.72094 18.141151 -14.052739 -3.242674 7e-06 -18.78727 -0.0 -0.429711 -8.456045 2.555504 1e-06 0.0 1e-06 -15.923532 -20.094479 -5.473585 30.419218 -7.190827 1.735927 4e-06 -8.162926 1e-06 -1.861903 -22.861473 -6.167939 -1e-06 -1e-06 0.0 146.803101 -43.29063 -52.492661 93.392433 -19.831615 8.142063 -92.483826 -7.863603 -4.235526 -11.935359 1.568724 2.454856 -0.999999 -0.0 -1e-06 -14.219999 -12.879163 -143.931152 -35.376438 -22.17662 139.675034 -115.008217 9.570206 -1.114171 -37.045174 1.024369 1.51452 -1.000005 -0.0 1e-06 
